<svg width="24" height="24" viewBox="0 0 24 24" fill="none" xmlns="http://www.w3.org/2000/svg">
    <path
        d="M6.70704 2.293C6.51951 2.10553 6.26521 2.00021 6.00004 2.00021C5.73488 2.00021 5.48057 2.10553 5.29304 2.293L4.00004 3.586L3.70704 3.293C3.51844 3.11084 3.26584 3.01005 3.00364 3.01233C2.74144 3.0146 2.49063 3.11977 2.30522 3.30518C2.11981 3.49059 2.01465 3.7414 2.01237 4.0036C2.01009 4.2658 2.11088 4.5184 2.29304 4.707L3.29304 5.707C3.48057 5.89447 3.73488 5.99979 4.00004 5.99979C4.26521 5.99979 4.51951 5.89447 4.70704 5.707L6.70704 3.707C6.89451 3.51947 6.99983 3.26516 6.99983 3C6.99983 2.73484 6.89451 2.48053 6.70704 2.293ZM11 17.5C11 17.666 11.006 17.8303 11.018 17.993H10C9.74516 17.9927 9.50001 17.8951 9.31467 17.7202C9.12934 17.5452 9.01781 17.306 9.00287 17.0516C8.98793 16.7972 9.07072 16.5466 9.23431 16.3512C9.3979 16.1557 9.62995 16.0301 9.88304 16L10 15.993H11.175C11.0581 16.4868 10.9994 16.9926 11 17.5ZM17.5 11C18.7268 10.998 19.9289 11.3448 20.966 12H21.004L21.12 11.993C21.373 11.9629 21.6049 11.8375 21.7685 11.6422C21.9321 11.447 22.015 11.1967 22.0003 10.9424C21.9856 10.6881 21.8745 10.449 21.6895 10.2739C21.5046 10.0987 21.2598 10.0008 21.005 10H10L9.88304 10.007C9.62995 10.0371 9.3979 10.1627 9.23431 10.3582C9.07072 10.5536 8.98793 10.8042 9.00287 11.0586C9.01781 11.313 9.12934 11.5522 9.31467 11.7272C9.50001 11.9021 9.74516 11.9997 10 12H14.034C15.0712 11.3448 16.2733 10.998 17.5 11ZM21.004 4H10L9.88304 4.007C9.62995 4.0371 9.3979 4.16271 9.23431 4.35817C9.07072 4.55362 8.98793 4.80416 9.00287 5.05861C9.01781 5.31305 9.12934 5.55218 9.31467 5.72715C9.50001 5.90212 9.74516 5.99972 10 6H21.004L21.12 5.993C21.373 5.96292 21.6049 5.83747 21.7685 5.64223C21.9321 5.44698 22.015 5.19668 22.0003 4.94239C21.9856 4.6881 21.8745 4.44899 21.6895 4.27386C21.5046 4.09873 21.2588 4.00078 21.004 4ZM6.70704 15.293C6.51951 15.1055 6.26521 15.0002 6.00004 15.0002C5.73488 15.0002 5.48057 15.1055 5.29304 15.293L4.00004 16.586L3.70704 16.293C3.51844 16.1108 3.26584 16.01 3.00364 16.0123C2.74144 16.0146 2.49063 16.1198 2.30522 16.3052C2.11981 16.4906 2.01465 16.7414 2.01237 17.0036C2.01009 17.2658 2.11088 17.5184 2.29304 17.707L3.29304 18.707C3.48057 18.8945 3.73488 18.9998 4.00004 18.9998C4.26521 18.9998 4.51951 18.8945 4.70704 18.707L6.70704 16.707C6.89451 16.5195 6.99983 16.2652 6.99983 16C6.99983 15.7348 6.89451 15.4805 6.70704 15.293ZM5.29304 8.793C5.48164 8.61084 5.73425 8.51005 5.99644 8.51233C6.25864 8.5146 6.50945 8.61977 6.69486 8.80518C6.88027 8.99059 6.98544 9.2414 6.98772 9.5036C6.98999 9.7658 6.8892 10.0184 6.70704 10.207L4.70704 12.207C4.51951 12.3945 4.26521 12.4998 4.00004 12.4998C3.73488 12.4998 3.48057 12.3945 3.29304 12.207L2.29304 11.207C2.11088 11.0184 2.01009 10.7658 2.01237 10.5036C2.01465 10.2414 2.11981 9.99059 2.30522 9.80518C2.49063 9.61977 2.74144 9.5146 3.00364 9.51233C3.26584 9.51005 3.51844 9.61084 3.70704 9.793L4.00004 10.086L5.29304 8.793ZM23 17.5C23 16.0413 22.4206 14.6424 21.3891 13.6109C20.3577 12.5795 18.9587 12 17.5 12C16.0414 12 14.6424 12.5795 13.611 13.6109C12.5795 14.6424 12 16.0413 12 17.5C12 18.9587 12.5795 20.3576 13.611 21.3891C14.6424 22.4205 16.0414 23 17.5 23C18.9587 23 20.3577 22.4205 21.3891 21.3891C22.4206 20.3576 23 18.9587 23 17.5ZM18 18L18.001 20.503C18.001 20.6356 17.9484 20.7628 17.8546 20.8566C17.7608 20.9503 17.6336 21.003 17.501 21.003C17.3684 21.003 17.2413 20.9503 17.1475 20.8566C17.0537 20.7628 17.001 20.6356 17.001 20.503V18H14.496C14.3634 18 14.2363 17.9473 14.1425 17.8536C14.0487 17.7598 13.996 17.6326 13.996 17.5C13.996 17.3674 14.0487 17.2402 14.1425 17.1464C14.2363 17.0527 14.3634 17 14.496 17H17V14.5C17 14.3674 17.0527 14.2402 17.1465 14.1464C17.2403 14.0527 17.3674 14 17.5 14C17.6326 14 17.7598 14.0527 17.8536 14.1464C17.9474 14.2402 18 14.3674 18 14.5V17H20.497C20.6296 17 20.7568 17.0527 20.8506 17.1464C20.9444 17.2402 20.997 17.3674 20.997 17.5C20.997 17.6326 20.9444 17.7598 20.8506 17.8536C20.7568 17.9473 20.6296 18 20.497 18H18Z"
        fill="#7254CC" />
</svg>